HIERARCHY
ROOT Hips
{
    OFFSET 0.000000 0.000000 0.000000
    CHANNELS 6 Xposition Yposition Zposition Zrotation Xrotation Yrotation
    JOINT Spine
    {
        OFFSET -0.000000 8.349382 0.000000
        CHANNELS 3 Zrotation Xrotation Yrotation
        JOINT Spine1
        {
            OFFSET -0.000000 23.269058 0.000000
            CHANNELS 3 Zrotation Xrotation Yrotation
            JOINT Neck
            {
                OFFSET -0.000000 23.173496 2.106681
                CHANNELS 3 Zrotation Xrotation Yrotation
                JOINT Head
                {
                    OFFSET -0.000000 14.255042 -2.036435
                    CHANNELS 3 Zrotation Xrotation Yrotation
                    End Site
                    {
                        OFFSET -0.000000 25.455433 0.000000
                    }
                }
            }
            JOINT LeftShoulder
            {
                OFFSET 3.917082 21.531742 0.000256
                CHANNELS 3 Zrotation Xrotation Yrotation
                JOINT LeftArm
                {
                    OFFSET 10.728225 0.000000 0.000000
                    CHANNELS 3 Zrotation Xrotation Yrotation
                    JOINT LeftForeArm
                    {
                        OFFSET 30.046112 0.000000 0.000000
                        CHANNELS 3 Zrotation Xrotation Yrotation
                        JOINT LeftHand
                        {
                            OFFSET 29.023712 0.000000 0.000000
                            CHANNELS 3 Zrotation Xrotation Yrotation
                            End Site
                            {
                                OFFSET 15.273261 0.000000 0.000000
                            }
                        }
                    }
                }
            }
            JOINT RightShoulder
            {
                OFFSET -3.920664 21.531742 0.000256
                CHANNELS 3 Zrotation Xrotation Yrotation
                JOINT RightArm
                {
                    OFFSET -10.728225 0.000000 0.000000
                    CHANNELS 3 Zrotation Xrotation Yrotation
                    JOINT RightForeArm
                    {
                        OFFSET -30.046112 0.000000 0.000000
                        CHANNELS 3 Zrotation Xrotation Yrotation
                        JOINT RightHand
                        {
                            OFFSET -29.023712 0.000000 0.000000
                            CHANNELS 3 Zrotation Xrotation Yrotation
                            End Site
                            {
                                OFFSET -15.273261 0.000000 0.000000
                            }
                        }
                    }
                }
            }
        }
    }
    JOINT LeftUpLeg
    {
        OFFSET 10.182174 0.000000 0.000000
        CHANNELS 3 Zrotation Xrotation Yrotation
        JOINT LeftLeg
        {
            OFFSET -0.000000 -49.689274 0.000000
            CHANNELS 3 Zrotation Xrotation Yrotation
            JOINT LeftFoot
            {
                OFFSET -0.000000 -39.155319 0.000000
                CHANNELS 3 Zrotation Xrotation Yrotation
                JOINT LeftToeBase
                {
                    OFFSET -0.000000 -6.618412 15.273261
                    CHANNELS 3 Zrotation Xrotation Yrotation
                    End Site
                    {
                        OFFSET -0.000000 0.000000 4.072869
                    }
                }
            }
        }
    }
    JOINT RightUpLeg
    {
        OFFSET -10.182174 0.000000 0.000000
        CHANNELS 3 Zrotation Xrotation Yrotation
        JOINT RightLeg
        {
            OFFSET -0.000000 -49.689274 0.000000
            CHANNELS 3 Zrotation Xrotation Yrotation
            JOINT RightFoot
            {
                OFFSET -0.000000 -39.155319 0.000000
                CHANNELS 3 Zrotation Xrotation Yrotation
                JOINT RightToeBase
                {
                    OFFSET -0.000000 -6.618412 15.273261
                    CHANNELS 3 Zrotation Xrotation Yrotation
                    End Site
                    {
                        OFFSET -0.000000 0.000000 4.072869
                    }
                }
            }
        }
    }
}
MOTION
Frames:    4
Frame Time:    0.008333
58.339821    97.045303    30.642282    -1.036166    1.776458    96.537552    0.413379    -3.268401    1.189343    1.498888    9.580486    1.051954    -0.345116    6.116239    2.642366    -1.435555    -6.513676    2.497365    2.364852    7.145634    -18.237017    -54.218330    38.425694    -24.437363    -5.607458    0.225528    -8.771673    -13.974358    -0.955378    6.118216    -3.725867    9.879917    -14.997867    47.215946    53.448689    33.609035    0.215225    -6.821891    10.563433    -3.228362    -6.984581    5.107100    1.163067    -15.789205    -2.070083    -13.922262    67.903290    -5.188243    5.244360    -2.526808    19.747437    0.000000    0.000000    0.000000    -1.815909    -5.580569    -4.419107    5.580635    12.844418    1.957873    -6.954369    -7.782962    -11.212477    0.000000    0.000000    0.000000    
59.401722    97.167900    30.698521    -1.130572    1.885605    96.299820    0.284076    -3.093364    1.406633    1.268495    9.154756    1.297420    -0.293684    6.122845    2.439601    -1.475692    -6.069542    2.279190    2.254571    7.288734    -18.182365    -54.546600    38.405746    -23.743391    -5.598740    -0.162658    -8.660932    -13.537913    -1.294116    5.953035    -3.892555    9.850667    -14.891397    46.975372    53.480194    33.788795    -0.001324    -6.804021    10.986602    -3.070300    -6.942819    5.218987    1.024766    -16.880369    -2.004120    -13.762779    66.709503    -5.486158    5.908270    -2.674011    19.584721    0.000000    0.000000    0.000000    -1.794650    -4.727966    -4.455615    5.540106    12.163959    1.950145    -6.723004    -7.824243    -10.885577    0.000000    0.000000    0.000000    
60.436695    97.262253    30.767494    -1.304869    2.031510    96.105179    0.022477    -2.940126    1.671394    1.067363    8.636896    1.590209    -0.118694    6.568672    2.308321    -1.500835    -6.299213    2.117858    2.300120    7.507972    -18.420900    -54.992008    38.106724    -23.111181    -5.563960    -0.698187    -8.581294    -13.143893    -1.861303    6.465518    -3.886510    9.814646    -14.927717    46.444687    53.676624    34.066250    -0.328019    -6.946571    11.451339    -3.042264    -7.052427    5.252085    0.822611    -18.122149    -1.906843    -13.563080    65.364105    -5.613393    6.179425    -2.769633    19.502808    0.000000    0.000000    0.000000    -1.813188    -3.991362    -4.387405    5.515816    11.535244    1.843883    -6.544563    -7.920571    -10.624106    0.000000    0.000000    0.000000    
61.533058    97.349487    30.847246    -1.368941    2.135776    95.859932    -0.205358    -2.876277    1.848008    1.014627    8.484170    1.777942    -0.428740    6.462100    2.181219    -1.087621    -5.945460    2.098207    2.219223    7.509043    -18.166231    -55.286190    38.279354    -22.662914    -5.463516    -1.266079    -8.463603    -12.552222    -2.402129    6.649062    -4.153541    9.743377    -14.869286    46.284939    53.261402    34.294323    -0.220931    -7.019379    12.051734    -4.168624    -7.179293    5.065962    0.709032    -19.148680    -1.715063    -12.985405    63.885723    -6.025834    5.826448    -2.978528    19.251932    0.000000    0.000000    0.000000    -1.756245    -3.102214    -4.090461    5.524739    10.880688    1.585648    -6.261775    -8.087208    -10.438663    0.000000    0.000000    0.000000    
